<svg width="28" height="28" viewBox="0 0 28 28" fill="none" xmlns="http://www.w3.org/2000/svg">
<rect width="28" height="28" rx="8" fill="#0059A8"/>
<path d="M9.92709 6.4917C9.49956 6.70441 9.1777 7.07467 9.027 7.52835L6.15939 16.1508C6.00743 16.6027 6.04286 17.092 6.25736 17.5208C6.47155 17.9465 6.84255 18.267 7.29328 18.4175L16.6994 21.5759C17.1586 21.7266 17.6429 21.694 18.0711 21.4782C18.5012 21.2617 18.8206 20.8956 18.9705 20.4407L21.8411 11.8195C22.1541 10.8824 21.642 9.86351 20.7038 9.55061L11.2968 6.39141C10.8394 6.24208 10.3549 6.27519 9.92709 6.4917Z" fill="white"/>
<path d="M14.5259 14.7719C14.0144 15.3438 13.3761 15.8019 12.6402 16.0871L12.2124 16.2519V12.257L12.6335 12.4196C13.373 12.702 14.0116 13.1622 14.5259 13.73C14.8908 13.1405 15.1188 12.4588 15.1639 11.7184C15.2803 9.80054 14.0798 8.04498 12.4325 7.43407L11.0749 6.97912C10.461 6.77548 9.81015 7.11495 9.60609 7.72534L6.72803 16.3531C6.52598 16.9659 6.8684 17.6325 7.4829 17.8348L14.0116 20.0151C14.6794 19.3068 15.1099 18.3694 15.1718 17.3223C15.2301 16.3898 14.9872 15.5106 14.5259 14.7719ZM10.7487 16.4983H10.1021V12.0196H10.7487V16.4983Z" fill="#0099DA"/>
<path d="M14.1476 14.2503C13.7839 13.8221 13.3441 13.4653 12.834 13.2031V15.3075C13.3441 15.0437 13.7856 14.681 14.1476 14.2503Z" fill="#F15C21"/>
<path d="M20.4961 10.1273L14.5039 8.125C15.3092 9.00547 15.8024 10.1745 15.8024 11.4577C15.8053 12.4696 15.4894 13.4413 14.9383 14.2503C15.4906 15.0586 15.8108 16.0293 15.8108 17.0426C15.8131 18.2537 15.3789 19.3676 14.6534 20.2294L16.9047 20.9808C17.5195 21.1851 18.169 20.8489 18.371 20.2349L21.2508 11.6099C21.4541 10.9963 21.1103 10.3316 20.4961 10.1273ZM18.9079 16.4836L18.1 16.4865L16.4356 14.246L18.1252 12.0073L18.9427 12.0044L17.2471 14.2503L18.9079 16.4836Z" fill="#0055A2"/>
</svg>
