<svg width="32" height="32" viewBox="0 0 32 32" fill="none" xmlns="http://www.w3.org/2000/svg">
<g clip-path="url(#clip0_3377_18774)">
<path fill-rule="evenodd" clip-rule="evenodd" d="M28.9086 11.651H26.4086L25.9198 10.5926C25.3278 9.31103 24.0454 8.49023 22.6334 8.49023H9.36063C7.94863 8.49023 6.66623 9.31103 6.07423 10.5926L5.58543 11.651H3.08543V26.731H3.09823C3.14463 28.063 4.22783 29.1998 5.64623 29.1998H26.3478C27.7654 29.1998 28.8494 28.063 28.8958 26.731H28.9086V11.651Z" fill="#FFA300"/>
<path fill-rule="evenodd" clip-rule="evenodd" d="M26.3483 14.3955H5.64746C3.97546 14.3955 2.75226 12.8179 3.16906 11.1987L6.07546 4.90269C6.66746 3.62109 7.94986 2.80029 9.36186 2.80029H22.6355C24.0475 2.80029 25.3299 3.62109 25.9219 4.90269L28.8283 11.1987C29.2451 12.8179 28.0219 14.3955 26.3499 14.3955H26.3483Z" fill="#FFC33A"/>
<path fill-rule="evenodd" clip-rule="evenodd" d="M18.2766 14.3955H13.7198L14.0278 2.80029H17.9686L18.2766 14.3955Z" fill="#FFE3A0"/>
<path d="M18.3056 14.395H13.7208V22.0182H18.3056V14.395Z" fill="#FFD06C"/>
</g>
<defs>
<clipPath id="clip0_3377_18774">
<rect width="32" height="32" fill="white"/>
</clipPath>
</defs>
</svg>
