<svg width="20" height="20" viewBox="0 0 20 20" fill="none" xmlns="http://www.w3.org/2000/svg">
<path d="M18.3337 10.0001C18.3337 14.6025 14.6027 18.3334 10.0003 18.3334C5.39795 18.3334 1.66699 14.6025 1.66699 10.0001C1.66699 5.39771 5.39795 1.66675 10.0003 1.66675C14.6027 1.66675 18.3337 5.39771 18.3337 10.0001Z" fill="#3B82F6"/>
<path fill-rule="evenodd" clip-rule="evenodd" d="M13.9245 7.04228C14.2157 7.29188 14.2494 7.73028 13.9998 8.02148L9.83314 12.8826C9.70726 13.0295 9.52582 13.1172 9.33253 13.1246C9.13924 13.132 8.95161 13.0585 8.81483 12.9217L6.03706 10.1439C5.76586 9.87272 5.76586 9.43302 6.03706 9.16183C6.30825 8.89063 6.74795 8.89063 7.01915 9.16183L9.26666 11.4093L12.9453 7.1176C13.1949 6.8264 13.6333 6.79268 13.9245 7.04228Z" fill="white"/>
</svg>
