<svg width="41" height="40" viewBox="0 0 41 40" fill="none" xmlns="http://www.w3.org/2000/svg">
<g id="paintbrush-vertical">
<path id="Vector" d="M17.4163 3.33333V6.66667M24.083 3.33333V10M30.7497 20V5C30.7497 4.55797 30.5741 4.13405 30.2615 3.82149C29.949 3.50893 29.525 3.33333 29.083 3.33333H12.4163C11.9743 3.33333 11.5504 3.50893 11.2378 3.82149C10.9253 4.13405 10.7497 4.55797 10.7497 5V20M30.7497 20H10.7497M30.7497 20C31.1917 20 31.6156 20.1756 31.9282 20.4882C32.2407 20.8007 32.4163 21.2246 32.4163 21.6667V23.3333C32.4163 24.2174 32.0652 25.0652 31.44 25.6904C30.8149 26.3155 29.9671 26.6667 29.083 26.6667H25.7497C25.3076 26.6667 24.8837 26.8423 24.5712 27.1548C24.2586 27.4674 24.083 27.8913 24.083 28.3333V33.1667C24.083 34.0507 23.7318 34.8986 23.1067 35.5237C22.4816 36.1488 21.6337 36.5 20.7497 36.5C19.8656 36.5 19.0178 36.1488 18.3927 35.5237C17.7675 34.8986 17.4163 34.0507 17.4163 33.1667V28.3333C17.4163 27.8913 17.2407 27.4674 16.9282 27.1548C16.6156 26.8423 16.1917 26.6667 15.7497 26.6667H12.4163C11.5323 26.6667 10.6844 26.3155 10.0593 25.6904C9.4342 25.0652 9.08301 24.2174 9.08301 23.3333V21.6667C9.08301 21.2246 9.2586 20.8007 9.57116 20.4882C9.88372 20.1756 10.3076 20 10.7497 20" stroke="#44BE83" stroke-width="3.33333" stroke-linecap="round" stroke-linejoin="round"/>
</g>
</svg>
