<svg width="20" height="20" viewBox="0 0 20 20" fill="none" xmlns="http://www.w3.org/2000/svg">
<path d="M18.3337 9.99984C18.3337 14.6022 14.6027 18.3332 10.0003 18.3332C5.39795 18.3332 1.66699 14.6022 1.66699 9.99984C1.66699 5.39746 5.39795 1.6665 10.0003 1.6665C14.6027 1.6665 18.3337 5.39746 18.3337 9.99984Z" fill="#F0B100"/>
<path d="M10.9723 14.2707C10.9723 14.8076 10.537 15.2429 10.0001 15.2429C9.46311 15.2429 9.02783 14.8076 9.02783 14.2707C9.02783 13.7337 9.46311 13.2984 10.0001 13.2984C10.537 13.2984 10.9723 13.7337 10.9723 14.2707Z" fill="white"/>
<path d="M9.16753 5.79845C9.16753 5.33821 9.54063 4.96511 10.0009 4.96511C10.4611 4.96511 10.8342 5.33821 10.8342 5.79845V11.0762C10.8342 11.5365 10.4611 11.9096 10.0009 11.9096C9.54063 11.9096 9.16753 11.5365 9.16753 11.0762V5.79845Z" fill="white"/>
</svg>
