<svg width="32" height="32" viewBox="0 0 32 32" fill="none" xmlns="http://www.w3.org/2000/svg">
<path d="M25.3333 15.9998H21.3333V11.9998C21.3333 10.5853 20.771 9.2292 19.7708 8.229C18.7706 7.22881 17.4145 6.6665 16 6.6665C14.5855 6.6665 13.2294 7.22881 12.2292 8.229C11.229 9.2292 10.6667 10.5853 10.6667 11.9998V15.9998H6.66666V11.9998C6.66666 9.52448 7.64939 7.14992 9.39973 5.39958C11.1501 3.64924 13.5246 2.6665 16 2.6665C18.4753 2.6665 20.8499 3.64924 22.6002 5.39958C24.3506 7.14992 25.3333 9.52448 25.3333 11.9998V15.9998Z" fill="#D1D5DC"/>
<path d="M16 25.3333C14.8954 25.3333 14 26.2288 14 27.3333C14 28.4379 14.8954 29.3333 16 29.3333V27.3333V25.3333ZM20 27.3333V29.3333C20.5304 29.3333 21.0391 29.1226 21.4142 28.7475L20 27.3333ZM16 27.3333V29.3333H20V27.3333V25.3333H16V27.3333ZM20 27.3333L21.4142 28.7475L26.7475 23.4142L25.3333 22L23.9191 20.5858L18.5858 25.9191L20 27.3333Z" fill="#D1D5DC"/>
<path d="M7.99999 12C9.47275 12 10.6667 13.1939 10.6667 14.6667V21.3333C10.6667 22.8061 9.47275 24 7.99999 24H6.66666C4.45752 24 2.66666 22.2091 2.66666 20V16C2.66666 13.7909 4.45752 12 6.66666 12H7.99999ZM25.3333 12C27.5425 12 29.3333 13.7909 29.3333 16V20C29.3333 22.2091 27.5425 24 25.3333 24H24C22.5272 24 21.3333 22.8061 21.3333 21.3333V14.6667C21.3333 13.1939 22.5272 12 24 12H25.3333Z" fill="#3B82F6"/>
</svg>
