<svg width="60" height="60" viewBox="0 0 60 60" fill="none" xmlns="http://www.w3.org/2000/svg">
<g clip-path="url(#clip0_966_7832)">
<path d="M30.0028 54.7477C41.0904 54.7477 50.0788 45.7594 50.0788 34.6717C50.0788 23.584 41.0904 14.5957 30.0028 14.5957C18.9151 14.5957 9.92676 23.584 9.92676 34.6717C9.92676 45.7594 18.9151 54.7477 30.0028 54.7477Z" fill="#FFCCA8"/>
<path d="M11.6806 42.7742C16.1193 42.7742 19.7176 39.3996 19.7176 35.2367C19.7176 31.0739 16.1193 27.6992 11.6806 27.6992C7.24184 27.6992 3.64355 31.0739 3.64355 35.2367C3.64355 39.3996 7.24184 42.7742 11.6806 42.7742Z" fill="#FFCCA8"/>
<path d="M48.3251 42.7742C52.7638 42.7742 56.3621 39.3996 56.3621 35.2367C56.3621 31.0739 52.7638 27.6992 48.3251 27.6992C43.8864 27.6992 40.2881 31.0739 40.2881 35.2367C40.2881 39.3996 43.8864 42.7742 48.3251 42.7742Z" fill="#FFCCA8"/>
<path d="M52.7061 28.9162C52.9086 15.1327 41.0496 3.87824 27.0066 5.38574C16.2051 6.54524 7.55611 15.3247 6.53761 26.1397C6.43411 27.2407 6.40711 28.3267 6.45361 29.3947C6.45361 29.3947 8.41561 28.9267 10.1616 32.7172L23.4051 17.8987C23.4051 17.8987 39.4821 30.8107 50.0931 30.1057C50.3271 30.0907 50.5971 30.0097 50.8626 29.8957C51.5706 29.4967 52.1631 28.7587 52.7061 28.9162Z" fill="#333333"/>
<path d="M24.3616 36.2637C25.5413 36.2637 26.4976 35.116 26.4976 33.7002C26.4976 32.2844 25.5413 31.1367 24.3616 31.1367C23.1819 31.1367 22.2256 32.2844 22.2256 33.7002C22.2256 35.116 23.1819 36.2637 24.3616 36.2637Z" fill="black"/>
<path d="M35.6409 36.2637C36.8206 36.2637 37.7769 35.116 37.7769 33.7002C37.7769 32.2844 36.8206 31.1367 35.6409 31.1367C34.4612 31.1367 33.5049 32.2844 33.5049 33.7002C33.5049 35.116 34.4612 36.2637 35.6409 36.2637Z" fill="black"/>
<path d="M32.6604 43.8125C33.1404 43.8125 33.4824 44.2745 33.3549 44.7365C32.9499 46.208 31.6029 47.288 30.0039 47.288C28.4049 47.288 27.0564 46.208 26.6529 44.7365C26.5254 44.273 26.8659 43.8125 27.3474 43.8125H32.6634H32.6604Z" fill="#5C2F17"/>
</g>
<defs>
<clipPath id="clip0_966_7832">
<rect width="60" height="60" fill="white"/>
</clipPath>
</defs>
</svg>
