<svg width="24" height="24" viewBox="0 0 24 24" fill="none" xmlns="http://www.w3.org/2000/svg">
<g clip-path="url(#clip0_3234_14386)">
<path d="M12.0001 22.2008C16.409 22.2008 19.9831 18.0908 19.9831 13.0208C19.9831 7.95085 16.409 3.84082 12.0001 3.84082C7.5912 3.84082 4.01709 7.95085 4.01709 13.0208C4.01709 18.0908 7.5912 22.2008 12.0001 22.2008Z" fill="#FFCCA8"/>
<path d="M5.35185 16.4522C7.11673 16.4522 8.54745 15.1102 8.54745 13.4546C8.54745 11.7991 7.11673 10.457 5.35185 10.457C3.58697 10.457 2.15625 11.7991 2.15625 13.4546C2.15625 15.1102 3.58697 16.4522 5.35185 16.4522Z" fill="#FFCCA8"/>
<path d="M18.6492 16.4522C20.4141 16.4522 21.8448 15.1102 21.8448 13.4546C21.8448 11.7991 20.4141 10.457 18.6492 10.457C16.8843 10.457 15.4536 11.7991 15.4536 13.4546C15.4536 15.1102 16.8843 16.4522 18.6492 16.4522Z" fill="#FFCCA8"/>
<path d="M9.75878 13.863C10.228 13.863 10.6084 13.4066 10.6084 12.8436C10.6084 12.2806 10.228 11.8242 9.75878 11.8242C9.28956 11.8242 8.90918 12.2806 8.90918 12.8436C8.90918 13.4066 9.28956 13.863 9.75878 13.863Z" fill="black"/>
<path d="M14.2446 13.863C14.7138 13.863 15.0942 13.4066 15.0942 12.8436C15.0942 12.2806 14.7138 11.8242 14.2446 11.8242C13.7754 11.8242 13.395 12.2806 13.395 12.8436C13.395 13.4066 13.7754 13.863 14.2446 13.863Z" fill="black"/>
<path d="M13.0589 17.8848C13.2491 17.8848 13.3847 18.0678 13.3343 18.2514C13.1735 18.837 12.6377 19.2666 12.0011 19.2666C11.3645 19.2666 10.8287 18.8364 10.6679 18.2514C10.6175 18.0678 10.7525 17.8848 10.9433 17.8848H13.0589Z" fill="#5C2F17"/>
<path d="M2.96769 11.4594C2.96769 11.4594 2.40549 4.98719 7.04469 3.84119C7.04469 3.84119 9.54549 1.10039 13.7857 1.97039C18.0259 2.84039 20.3095 6.17459 20.7079 8.09519C21.1063 10.0158 21.0115 11.4366 21.0115 11.4366L19.8145 12.3786C19.4935 12.6312 19.0399 12.6138 18.7375 12.339C18.0373 11.703 16.5529 10.6494 14.1121 10.2756C10.5241 9.72599 8.47209 6.92459 7.93269 5.45459C7.93269 5.45459 6.42309 10.3134 4.96869 12.1674C4.71069 12.4962 4.22409 12.5316 3.90609 12.2604L2.96769 11.4594Z" fill="#333333"/>
</g>
<defs>
<clipPath id="clip0_3234_14386">
<rect width="24" height="24" fill="white"/>
</clipPath>
</defs>
</svg>
