<svg width="28" height="28" viewBox="0 0 28 28" fill="none" xmlns="http://www.w3.org/2000/svg">
<g clip-path="url(#clip0_1712_25293)">
<path d="M10.1492 24.8184L2.96302 22.7576C2.65992 22.6708 2.44922 22.3761 2.44922 22.0394V6.19494C2.44922 5.70634 2.88042 5.35074 3.32002 5.47674L10.1492 7.43534V24.8184Z" fill="#D0D5DC"/>
<path d="M10.1504 24.8182L17.8504 22.6104V5.22656L10.1504 7.43506V24.8182Z" fill="#E1E4E7"/>
<path d="M24.6788 24.5683L17.8496 22.6097V5.22656L25.0358 7.28736C25.3389 7.37416 25.5496 7.66886 25.5496 8.00556V23.8501C25.5496 24.3387 25.1184 24.6943 24.6788 24.5683Z" fill="#D0D5DC"/>
<path d="M18.3547 13.6302C19.0092 12.9386 20.1936 11.6954 21.2436 10.6405C23.2442 8.62935 23.3807 5.19725 21.3556 3.21135C20.3826 2.25725 19.117 1.78055 17.8507 1.78125C16.5851 1.78125 15.3195 2.25725 14.3465 3.21135C12.32 5.19795 12.4572 8.63005 14.4585 10.6412C15.5085 11.6961 16.695 12.9393 17.3495 13.6309C17.6225 13.9193 18.081 13.9186 18.354 13.6309L18.3547 13.6302Z" fill="#4582ED"/>
<path d="M17.8494 8.272C18.6701 8.272 19.3355 7.60665 19.3355 6.7859C19.3355 5.96515 18.6701 5.2998 17.8494 5.2998C17.0286 5.2998 16.3633 5.96515 16.3633 6.7859C16.3633 7.60665 17.0286 8.272 17.8494 8.272Z" fill="#FBFBFB"/>
</g>
<defs>
<clipPath id="clip0_1712_25293">
<rect width="28" height="28" fill="white"/>
</clipPath>
</defs>
</svg>
