<svg width="73" height="72" viewBox="0 0 73 72" fill="none" xmlns="http://www.w3.org/2000/svg">
<path d="M42.5 6H18.5C16.9087 6 15.3826 6.63214 14.2574 7.75736C13.1321 8.88258 12.5 10.4087 12.5 12V60C12.5 61.5913 13.1321 63.1174 14.2574 64.2426C15.3826 65.3679 16.9087 66 18.5 66H54.5C56.0913 66 57.6174 65.3679 58.7426 64.2426C59.8679 63.1174 60.5 61.5913 60.5 60V24L42.5 6Z" fill="#E5E7EB"/>
<path d="M42.5 18V6L60.5 24H48.5C46.9087 24 45.3826 23.3679 44.2574 22.2426C43.1321 21.1174 42.5 19.5913 42.5 18Z" fill="#99A1AF"/>
</svg>
