<svg width="40" height="40" viewBox="0 0 40 40" fill="none" xmlns="http://www.w3.org/2000/svg">
<g clip-path="url(#clip0_1712_25184)">
<path fill-rule="evenodd" clip-rule="evenodd" d="M36.1394 14.5643H33.0144L32.4034 13.2413C31.6634 11.6393 30.0604 10.6133 28.2954 10.6133H11.7044C9.93935 10.6133 8.33635 11.6393 7.59635 13.2413L6.98535 14.5643H3.86035V33.4143H3.87635C3.93435 35.0793 5.28835 36.5003 7.06135 36.5003H32.9384C34.7104 36.5003 36.0654 35.0793 36.1234 33.4143H36.1394V14.5643Z" fill="#FFA300"/>
<path fill-rule="evenodd" clip-rule="evenodd" d="M32.9379 17.994H7.06192C4.97192 17.994 3.44292 16.022 3.96392 13.998L7.59692 6.128C8.33692 4.526 9.93992 3.5 11.7049 3.5H28.2969C30.0619 3.5 31.6649 4.526 32.4049 6.128L36.0379 13.998C36.5589 16.022 35.0299 17.994 32.9399 17.994H32.9379Z" fill="#FFC33A"/>
<path fill-rule="evenodd" clip-rule="evenodd" d="M22.8483 17.994H17.1523L17.5373 3.5H22.4633L22.8483 17.994Z" fill="#FFE3A0"/>
<path d="M22.8833 17.9941H17.1523V27.5231H22.8833V17.9941Z" fill="#FFD06C"/>
</g>
<defs>
<clipPath id="clip0_1712_25184">
<rect width="40" height="40" fill="white"/>
</clipPath>
</defs>
</svg>
