<svg width="24" height="24" viewBox="0 0 24 24" fill="none" xmlns="http://www.w3.org/2000/svg">
<g clip-path="url(#clip0_1434_7337)">
<path d="M6.69063 17.3078C11.58 22.1972 15.2886 23.3102 18.243 22.607C19.8834 22.2164 21.3456 20.8802 22.3224 19.7684C23.0628 18.9248 22.923 17.6276 22.035 16.9406L18.129 13.9178C17.739 13.616 17.1852 13.6508 16.836 14L14.7618 16.0742C14.4414 16.3946 13.9476 16.4582 13.5618 16.2212C12.8952 15.812 11.7768 15.0188 10.3788 13.6202C8.98083 12.2222 8.18763 11.1038 7.77783 10.4372C7.54083 10.0514 7.60443 9.55764 7.92483 9.23724L9.99903 7.16304C10.3476 6.81444 10.383 6.26064 10.0812 5.87004L7.05843 1.96404C6.37143 1.07604 5.07363 0.936239 4.23063 1.67664C3.11883 2.65284 1.78263 4.11504 1.39203 5.75604C0.688826 8.71104 1.80183 12.419 6.69123 17.3084L6.69063 17.3078Z" fill="#23B169"/>
</g>
<defs>
<clipPath id="clip0_1434_7337">
<rect width="24" height="24" fill="white"/>
</clipPath>
</defs>
</svg>
