<svg width="24" height="24" viewBox="0 0 24 24" fill="none" xmlns="http://www.w3.org/2000/svg">
<path d="M2.0498 2.05078H4.0498L6.7098 14.4708C6.80738 14.9256 7.06048 15.3323 7.42552 15.6206C7.79056 15.909 8.24471 16.0611 8.7098 16.0508H18.4898C18.945 16.05 19.3863 15.8941 19.7408 15.6086C20.0954 15.3232 20.3419 14.9253 20.4398 14.4808L22.0898 7.05078H5.1198M8.9998 21.0008C8.9998 21.5531 8.55209 22.0008 7.9998 22.0008C7.44752 22.0008 6.9998 21.5531 6.9998 21.0008C6.9998 20.4485 7.44752 20.0008 7.9998 20.0008C8.55209 20.0008 8.9998 20.4485 8.9998 21.0008ZM19.9998 21.0008C19.9998 21.5531 19.5521 22.0008 18.9998 22.0008C18.4475 22.0008 17.9998 21.5531 17.9998 21.0008C17.9998 20.4485 18.4475 20.0008 18.9998 20.0008C19.5521 20.0008 19.9998 20.4485 19.9998 21.0008Z" stroke="#364153" stroke-width="2" stroke-linecap="round" stroke-linejoin="round"/>
</svg>
