<svg width="32" height="32" viewBox="0 0 32 32" fill="none" xmlns="http://www.w3.org/2000/svg">
<g clip-path="url(#clip0_999_8768)">
<path d="M30.1811 7.75569C30.0627 7.25409 29.4323 7.07729 29.0675 7.44209L25.5171 10.9925L21.6523 10.2773L20.9363 6.41249L24.4867 2.86209C24.8515 2.49729 24.6747 1.86689 24.1731 1.74849C21.5315 1.12369 18.6379 1.84049 16.5779 3.90049C14.1211 6.35729 13.5819 9.99649 14.9427 12.9821L2.75314 24.1821C1.25074 25.5845 1.21074 27.9525 2.66354 29.4061C4.11634 30.8589 6.48434 30.8189 7.88674 29.3173L19.1379 17.0757C22.0867 18.3269 25.6243 17.7557 28.0283 15.3517C30.0891 13.2917 30.8051 10.3973 30.1811 7.75649V7.75569ZM6.40274 27.7573C5.82514 28.3349 4.88914 28.3349 4.31234 27.7573C3.73474 27.1797 3.73474 26.2437 4.31234 25.6669C4.88994 25.0893 5.82594 25.0893 6.40274 25.6669C6.98034 26.2445 6.98034 27.1805 6.40274 27.7573Z" fill="#ABB7C7"/>
</g>
<defs>
<clipPath id="clip0_999_8768">
<rect width="32" height="32" fill="white"/>
</clipPath>
</defs>
</svg>
