<svg width="32" height="32" viewBox="0 0 32 32" fill="none" xmlns="http://www.w3.org/2000/svg">
<path d="M30.3913 18.2672L29.9849 17.3936H21.1465V24.872H22.2409C22.2353 24.7944 22.2177 24.7208 22.2177 24.6416C22.2177 22.7528 23.7489 21.2216 25.6377 21.2216C27.5265 21.2216 29.0577 22.7528 29.0577 24.6416C29.0577 24.7208 29.0401 24.7944 29.0345 24.872H29.4153C30.1097 24.872 30.6729 24.3088 30.6729 23.6144V19.5392C30.6729 19.1 30.5769 18.6664 30.3913 18.2672Z" fill="#CBCFD2"/>
<path d="M21.147 9.90572V6.51932C21.147 5.82492 20.5838 5.26172 19.8894 5.26172H2.58377C1.88937 5.26172 1.32617 5.82492 1.32617 6.51932V8.03372H21.1462V8.83372H1.32697V11.3505H21.147V12.1505H1.32697V14.6673H21.147V15.4673H1.32697V17.9841H21.147V18.7841H1.32697V21.3009H6.62297C6.85577 21.2513 7.09657 21.2217 7.34377 21.2217C7.59097 21.2217 7.83177 21.2513 8.06457 21.3009H21.1462V22.1009H9.61417C10.315 22.7273 10.7638 23.6281 10.7638 24.6417C10.7638 24.7209 10.7462 24.7945 10.7406 24.8721H21.1462L21.147 9.90572Z" fill="#23B169"/>
<path d="M5.07533 22.1016H1.32812V23.6152C1.32812 24.3096 1.89132 24.8728 2.58572 24.8728H3.94893C3.94333 24.7952 3.92573 24.7216 3.92573 24.6424C3.92573 23.6288 4.37532 22.728 5.07533 22.1016Z" fill="#23B169"/>
<path d="M21.147 8.03369H1.32697H1.32617V8.83369H1.32697H21.147V8.03369Z" fill="#0A9F60"/>
<path d="M21.147 11.3496H1.32697H1.32617V12.1496H1.32697H21.147V11.3496Z" fill="#0A9F60"/>
<path d="M21.147 14.667H1.32697H1.32617V15.467H1.32697H21.147V14.667Z" fill="#0A9F60"/>
<path d="M21.147 18.7839V17.9839H1.32697H1.32617V18.7839H1.32697H21.147Z" fill="#0A9F60"/>
<path d="M6.62297 21.3018H1.32617V22.1018H5.07417C5.50777 21.7138 6.03337 21.4282 6.62297 21.3018Z" fill="#0A9F60"/>
<path d="M21.148 22.1018V21.3018H8.06641C8.65601 21.4282 9.18161 21.7138 9.61521 22.1018H21.148Z" fill="#0A9F60"/>
<path d="M29.986 17.3933L27.1172 11.2237C26.7428 10.4197 25.9364 9.90527 25.05 9.90527H21.1484V17.3933H29.9868H29.986Z" fill="#313D4C"/>
<path d="M9.61458 22.1014C9.18098 21.7134 8.65538 21.4278 8.06578 21.3014C7.83298 21.2518 7.59218 21.2222 7.34498 21.2222C7.09778 21.2222 6.85698 21.2518 6.62418 21.3014C6.03458 21.4278 5.50898 21.7134 5.07538 22.1014C4.37458 22.7278 3.92578 23.6286 3.92578 24.6422C3.92578 24.7214 3.94338 24.795 3.94898 24.8726C4.06978 26.6518 5.53618 28.0622 7.34578 28.0622C9.15538 28.0622 10.6218 26.6518 10.7426 24.8726C10.7482 24.795 10.7658 24.7214 10.7658 24.6422C10.7658 23.6286 10.3162 22.7278 9.61618 22.1014H9.61458ZM7.34418 26.0102C6.58898 26.0102 5.97618 25.3974 5.97618 24.6422C5.97618 23.887 6.58898 23.2742 7.34418 23.2742C8.09938 23.2742 8.71218 23.887 8.71218 24.6422C8.71218 25.3974 8.09938 26.0102 7.34418 26.0102Z" fill="#313D4C"/>
<path d="M25.6387 21.2222C23.7499 21.2222 22.2188 22.7534 22.2188 24.6422C22.2188 24.7214 22.2363 24.795 22.2419 24.8726C22.3627 26.6518 23.8291 28.0622 25.6387 28.0622C27.4483 28.0622 28.9147 26.6518 29.0355 24.8726C29.0411 24.795 29.0588 24.7214 29.0588 24.6422C29.0588 22.7534 27.5275 21.2222 25.6387 21.2222ZM25.6387 26.0102C24.8835 26.0102 24.2707 25.3974 24.2707 24.6422C24.2707 23.887 24.8835 23.2742 25.6387 23.2742C26.3939 23.2742 27.0067 23.887 27.0067 24.6422C27.0067 25.3974 26.3939 26.0102 25.6387 26.0102Z" fill="#313D4C"/>
<path d="M8.71256 24.6424C8.71256 23.8872 8.09976 23.2744 7.34456 23.2744C6.58936 23.2744 5.97656 23.8872 5.97656 24.6424C5.97656 25.3976 6.58936 26.0104 7.34456 26.0104C8.09976 26.0104 8.71256 25.3976 8.71256 24.6424Z" fill="#6B7683"/>
<path d="M27.0055 24.6424C27.0055 23.8872 26.3927 23.2744 25.6375 23.2744C24.8823 23.2744 24.2695 23.8872 24.2695 24.6424C24.2695 25.3976 24.8823 26.0104 25.6375 26.0104C26.3927 26.0104 27.0055 25.3976 27.0055 24.6424Z" fill="#6B7683"/>
</svg>
