<svg width="32" height="32" viewBox="0 0 32 32" fill="none" xmlns="http://www.w3.org/2000/svg">
<g clip-path="url(#clip0_999_8779)">
<path d="M16.0004 4.3999C9.60439 4.3999 4.40039 9.6039 4.40039 15.9999C4.40039 22.3959 9.60439 27.5999 16.0004 27.5999C22.3964 27.5999 27.6004 22.3959 27.6004 15.9999C27.6004 9.6039 22.3964 4.3999 16.0004 4.3999ZM17.2004 23.7375C17.2004 24.4007 16.6636 24.9375 16.0004 24.9375C15.3372 24.9375 14.8004 24.4007 14.8004 23.7375V16.6879L9.54839 13.6135C8.97639 13.2791 8.78439 12.5439 9.11879 11.9719C9.45319 11.3999 10.1876 11.2063 10.7604 11.5423L16.606 14.9647C16.6164 14.9711 16.6244 14.9791 16.6348 14.9855C16.6724 15.0095 16.7068 15.0359 16.742 15.0639C16.77 15.0863 16.7988 15.1079 16.8244 15.1319C16.8532 15.1591 16.8788 15.1895 16.9044 15.2199C16.9292 15.2487 16.9548 15.2767 16.9764 15.3071C16.9996 15.3391 17.018 15.3743 17.038 15.4087C17.0564 15.4407 17.0756 15.4727 17.0908 15.5063C17.1076 15.5423 17.1188 15.5807 17.1324 15.6191C17.1444 15.6551 17.1572 15.6903 17.166 15.7271C17.1748 15.7631 17.1788 15.8007 17.1836 15.8375C17.1892 15.8799 17.1948 15.9215 17.1964 15.9639C17.1964 15.9767 17.2004 15.9879 17.2004 16.0007V23.7375Z" fill="#E5E8EB"/>
<path d="M16 2C8.268 2 2 8.268 2 16C2 23.732 8.268 30 16 30C23.732 30 30 23.732 30 16C30 8.268 23.732 2 16 2ZM16 27.6C9.604 27.6 4.4 22.396 4.4 16C4.4 9.604 9.604 4.4 16 4.4C22.396 4.4 27.6 9.604 27.6 16C27.6 22.396 22.396 27.6 16 27.6Z" fill="#A3ADB7"/>
<path d="M15.9991 14.7999C16.2327 14.7999 16.4495 14.8695 16.6335 14.9847C16.6231 14.9783 16.6151 14.9703 16.6047 14.9639L10.7591 11.5415C10.1863 11.2055 9.45188 11.3991 9.11748 11.9711C8.78308 12.5431 8.97508 13.2783 9.54708 13.6127L14.7991 16.6871V15.9991C14.7991 15.3359 15.3359 14.7999 15.9991 14.7999Z" fill="#FF2A4B"/>
<path d="M17.184 15.8366C17.1792 15.799 17.1744 15.7622 17.1664 15.7262C17.1576 15.6894 17.1448 15.6542 17.1328 15.6182C17.12 15.5798 17.108 15.5422 17.0912 15.5054C17.076 15.4718 17.0568 15.4398 17.0384 15.4078C17.0184 15.3734 17 15.3382 16.9768 15.3062C16.9552 15.275 16.9296 15.247 16.9048 15.219C16.8784 15.1886 16.8536 15.1582 16.8248 15.131C16.7992 15.1062 16.7704 15.0854 16.7424 15.063C16.708 15.0358 16.6728 15.0086 16.6352 14.9846C16.4504 14.8694 16.2344 14.7998 16.0008 14.7998C15.3376 14.7998 14.8008 15.3366 14.8008 15.9998V23.7374C14.8008 24.4006 15.3376 24.9374 16.0008 24.9374C16.664 24.9374 17.2008 24.4006 17.2008 23.7374V15.9998C17.2008 15.987 17.1976 15.9758 17.1968 15.963C17.1952 15.9198 17.1896 15.8782 17.184 15.8366Z" fill="#313D4C"/>
</g>
<defs>
<clipPath id="clip0_999_8779">
<rect width="32" height="32" fill="white"/>
</clipPath>
</defs>
</svg>
