<svg width="375" height="812" viewBox="0 0 375 812" fill="none" xmlns="http://www.w3.org/2000/svg">
<rect width="375" height="812" fill="#F3F4F6"/>
<g clip-path="url(#clip0_2591_11350)">
<path d="M221.956 61.5809V61.2578H209.744V63.9286H218.864C218.839 64.3462 218.773 65.005 218.663 65.9146L218.663 65.9164L218.663 65.9184C218.535 67.0978 218.329 68.3577 218.043 69.6983L217.961 70.0886H221.037L221.089 69.8289C221.32 68.6709 221.522 67.3921 221.695 65.9929C221.87 64.5858 221.956 63.1151 221.956 61.5809Z" fill="#99A1AF"/>
<path d="M217.477 73.0283H226.006V70.3359H206.449V73.0283H214.44V80.9975H217.477V73.0283Z" fill="#99A1AF"/>
<path d="M197.688 63.0483L197.74 62.6797H187.999V65.3504H194.249C193.388 68.2104 191.295 71.0369 187.922 73.8245L187.623 74.0719L189.848 75.9352L190.055 75.7676C194.431 72.2203 196.986 67.9792 197.688 63.0483Z" fill="#99A1AF"/>
<path d="M206.448 67.0215H203.045V60H200.051V80.6123H203.045V69.8H206.448V67.0215Z" fill="#99A1AF"/>
<path d="M174.463 68.9886H182.798V61.8594H171.34V64.4871H179.761V66.3609H171.426V73.6194H175.777V75.5363H167.484V78.2286H187.041V75.5363H178.835V73.6194H183.208V70.9917H174.463V68.9886Z" fill="#99A1AF"/>
<path d="M164.271 66.9569H167.674V69.7354H164.271V80.6123H161.277V60H164.271V66.9569ZM151.951 66.5046H156.086V62.52H159.037V74.6892H149V62.52H151.951V66.5046ZM151.951 69.1539V72.0185H156.086V69.1539H151.951Z" fill="#99A1AF"/>
</g>
<path d="M132.123 134.566H123.135V142.336H119.936V134.566H111.049V131.977H132.123V134.566ZM130.244 122.988H123.503C123.613 123.767 123.977 124.512 124.595 125.223C125.213 125.925 126.076 126.535 127.185 127.051C128.293 127.559 129.609 127.906 131.133 128.092L129.965 130.631C127.967 130.36 126.249 129.818 124.811 129.006C123.38 128.193 122.31 127.182 121.599 125.972C120.879 127.182 119.809 128.193 118.387 129.006C116.965 129.818 115.264 130.36 113.283 130.631L112.09 128.092C113.588 127.906 114.887 127.559 115.987 127.051C117.096 126.535 117.959 125.925 118.577 125.223C119.203 124.512 119.576 123.767 119.694 122.988H112.953V120.449H130.244V122.988ZM154.645 133.221H145.936V137.207H142.736V133.221H133.494V130.656H154.645V133.221ZM151.928 128.752H136.135V120.246H151.928V128.752ZM139.309 126.238H148.754V122.76H139.309V126.238ZM152.309 141.93H135.982V135.201H139.207V139.34H152.309V141.93ZM181.152 122.76H174.83C174.999 123.361 175.384 123.928 175.985 124.461C176.586 124.994 177.407 125.451 178.448 125.832C179.498 126.213 180.738 126.467 182.168 126.594L181 129.082C178.876 128.887 177.086 128.405 175.63 127.635C174.174 126.865 173.129 125.891 172.494 124.715C171.868 125.891 170.835 126.865 169.396 127.635C167.958 128.405 166.18 128.887 164.064 129.082L162.922 126.594C164.327 126.45 165.546 126.188 166.578 125.807C167.611 125.426 168.427 124.973 169.028 124.448C169.629 123.915 170.014 123.352 170.184 122.76H163.912V120.17H181.152V122.76ZM183.057 132.637H161.982V130.072H183.057V132.637ZM180.492 142.336H177.268V136.902H164.318V134.312H180.492V142.336ZM193.441 124.461C193.441 125.908 193.661 127.309 194.102 128.663C194.542 130.009 195.198 131.206 196.069 132.256C196.95 133.297 198.02 134.084 199.281 134.617L197.377 137.207C196.09 136.623 194.982 135.789 194.051 134.706C193.128 133.614 192.396 132.332 191.854 130.859C191.313 132.467 190.56 133.864 189.595 135.049C188.638 136.234 187.475 137.139 186.104 137.766L184.148 135.074C185.452 134.524 186.552 133.707 187.449 132.624C188.346 131.532 189.019 130.284 189.468 128.879C189.925 127.474 190.158 126.001 190.166 124.461V121.008H193.441V124.461ZM203.801 142.387H200.525V119.23H203.801V142.387ZM232.898 142.336H229.826V119.23H232.898V142.336ZM228.176 141.27H225.129V129.768H222.082V127.152H225.129V119.611H228.176V141.27ZM220.229 125.426C220.229 127.525 220.592 129.433 221.32 131.151C222.057 132.861 223.216 134.169 224.799 135.074L222.895 137.461C221.896 136.868 221.045 136.081 220.343 135.1C219.649 134.118 219.103 132.984 218.705 131.697C218.29 133.102 217.723 134.342 217.004 135.417C216.285 136.492 215.413 137.342 214.389 137.969L212.434 135.582C213.517 134.922 214.406 134.054 215.1 132.979C215.802 131.896 216.31 130.711 216.623 129.425C216.945 128.138 217.105 126.805 217.105 125.426V124.182H213.322V121.592H223.732V124.182H220.229V125.426ZM248.514 123.166H243.918C243.926 124.105 244.121 125.011 244.502 125.883C244.891 126.746 245.488 127.525 246.292 128.219C247.096 128.913 248.099 129.454 249.301 129.844L247.65 132.357C246.398 131.96 245.323 131.371 244.426 130.593C243.537 129.806 242.835 128.879 242.318 127.812C241.785 128.98 241.053 129.988 240.122 130.834C239.191 131.68 238.07 132.315 236.758 132.738L235.031 130.25C236.258 129.852 237.287 129.285 238.116 128.549C238.954 127.812 239.58 126.983 239.995 126.061C240.41 125.13 240.626 124.165 240.643 123.166H235.92V120.576H248.514V123.166ZM253.719 124.842H256.842V127.533H253.719V133.17H250.469V119.23H253.719V124.842ZM253.719 142.336H250.469V136.725H238.154V134.16H253.719V142.336ZM260.549 145.357H257.857L259.127 138.121H262.732L260.549 145.357Z" fill="#101828"/>
<path d="M121.649 156.424C123.3 156.424 124.785 156.686 126.105 157.211C127.426 157.736 128.463 158.48 129.216 159.445C129.969 160.402 130.35 161.502 130.358 162.746C130.35 163.88 130.045 164.896 129.444 165.793C128.843 166.69 128.006 167.418 126.931 167.977C125.864 168.527 124.637 168.882 123.249 169.043V172.979H132.263V175.645H111.112V172.979H120.024V169.03C118.645 168.878 117.422 168.522 116.355 167.964C115.289 167.405 114.455 166.682 113.854 165.793C113.262 164.896 112.966 163.88 112.966 162.746C112.966 161.502 113.338 160.402 114.083 159.445C114.836 158.48 115.873 157.736 117.193 157.211C118.514 156.686 119.999 156.424 121.649 156.424ZM121.649 159.014C120.575 159.014 119.622 159.166 118.793 159.471C117.964 159.767 117.316 160.199 116.851 160.766C116.394 161.333 116.165 161.993 116.165 162.746C116.165 163.542 116.394 164.227 116.851 164.803C117.316 165.37 117.959 165.806 118.78 166.11C119.61 166.407 120.566 166.555 121.649 166.555C122.741 166.555 123.698 166.407 124.519 166.11C125.348 165.814 125.991 165.378 126.448 164.803C126.914 164.227 127.151 163.542 127.159 162.746C127.151 161.984 126.914 161.324 126.448 160.766C125.991 160.199 125.348 159.767 124.519 159.471C123.689 159.166 122.733 159.014 121.649 159.014ZM152.271 162.467H136.198V155.51H139.423V159.902H152.271V162.467ZM154.708 166.58H133.558V164.016H154.708V166.58ZM152.169 174.121H139.271V175.594H152.88V178.082H136.021V171.785H148.944V170.465H135.97V167.977H152.169V174.121ZM180.378 161.857H183.501V164.549H180.378V172.064H177.128V155.23H180.378V161.857ZM181.216 177.93H165.397V170.287H168.622V175.34H181.216V177.93ZM168.546 156.729C169.714 156.729 170.776 156.982 171.732 157.49C172.697 157.99 173.455 158.688 174.005 159.585C174.563 160.474 174.843 161.477 174.843 162.594C174.843 163.702 174.563 164.705 174.005 165.603C173.455 166.491 172.697 167.189 171.732 167.697C170.776 168.205 169.714 168.459 168.546 168.459C167.369 168.459 166.299 168.205 165.334 167.697C164.369 167.189 163.603 166.491 163.036 165.603C162.478 164.705 162.198 163.702 162.198 162.594C162.198 161.477 162.478 160.474 163.036 159.585C163.595 158.688 164.356 157.99 165.321 157.49C166.295 156.982 167.369 156.729 168.546 156.729ZM168.546 159.547C167.953 159.538 167.416 159.657 166.934 159.902C166.46 160.139 166.083 160.491 165.804 160.956C165.524 161.422 165.389 161.967 165.397 162.594C165.389 163.203 165.524 163.741 165.804 164.206C166.083 164.663 166.464 165.019 166.946 165.272C167.429 165.518 167.962 165.641 168.546 165.641C169.138 165.641 169.672 165.518 170.146 165.272C170.619 165.019 170.992 164.663 171.263 164.206C171.542 163.741 171.686 163.203 171.694 162.594C171.686 161.967 171.542 161.422 171.263 160.956C170.992 160.491 170.619 160.139 170.146 159.902C169.672 159.657 169.138 159.538 168.546 159.547ZM204.55 178.336H201.452V155.23H204.55V178.336ZM199.726 177.27H196.679V166.352H194.812C194.719 167.858 194.449 169.157 194 170.249C193.56 171.341 192.976 172.179 192.248 172.763C191.52 173.347 190.687 173.639 189.747 173.639C188.74 173.639 187.855 173.3 187.094 172.623C186.34 171.946 185.757 170.977 185.342 169.716C184.927 168.446 184.72 166.952 184.72 165.234C184.72 163.525 184.927 162.044 185.342 160.791C185.757 159.53 186.34 158.565 187.094 157.896C187.855 157.219 188.74 156.881 189.747 156.881C190.67 156.881 191.486 157.156 192.197 157.706C192.917 158.256 193.496 159.052 193.937 160.093C194.385 161.125 194.669 162.357 194.787 163.787H196.679V155.561H199.726V177.27ZM189.747 159.928C189.087 159.928 188.579 160.376 188.224 161.273C187.877 162.171 187.707 163.491 187.716 165.234C187.707 166.986 187.877 168.311 188.224 169.208C188.579 170.097 189.087 170.533 189.747 170.516C190.416 170.533 190.932 170.097 191.296 169.208C191.668 168.311 191.854 166.986 191.854 165.234C191.854 163.491 191.668 162.171 191.296 161.273C190.932 160.376 190.416 159.928 189.747 159.928ZM216.687 162.492H219.835V157.287H222.831V172.852H213.64V157.287H216.687V162.492ZM219.835 170.262V165.031H216.687V170.262H219.835ZM233.013 178.336H229.915V166.682H227.833V177.27H224.761V155.561H227.833V164.041H229.915V155.23H233.013V178.336ZM247.562 166.25H256.524V168.84H235.45V166.25H244.362V163.406H247.562V166.25ZM247.612 156.373C247.612 157.296 247.904 158.167 248.488 158.988C249.081 159.801 249.961 160.499 251.129 161.083C252.305 161.667 253.731 162.061 255.407 162.264L254.163 164.777C252.233 164.49 250.562 163.956 249.148 163.178C247.743 162.391 246.669 161.413 245.924 160.245C245.179 161.413 244.1 162.391 242.687 163.178C241.282 163.965 239.614 164.498 237.685 164.777L236.542 162.264C238.184 162.061 239.589 161.663 240.757 161.07C241.925 160.478 242.809 159.771 243.41 158.95C244.011 158.129 244.312 157.27 244.312 156.373V155.611H247.612V156.373ZM245.962 170.109C247.629 170.109 249.064 170.27 250.266 170.592C251.476 170.913 252.398 171.387 253.033 172.014C253.676 172.632 254.002 173.376 254.011 174.248C254.002 175.12 253.676 175.86 253.033 176.47C252.398 177.079 251.48 177.54 250.278 177.854C249.076 178.175 247.638 178.336 245.962 178.336C244.269 178.336 242.818 178.175 241.607 177.854C240.397 177.54 239.47 177.079 238.827 176.47C238.184 175.86 237.862 175.12 237.862 174.248C237.862 173.376 238.184 172.632 238.827 172.014C239.47 171.387 240.397 170.913 241.607 170.592C242.826 170.27 244.278 170.109 245.962 170.109ZM245.962 172.572C244.337 172.572 243.127 172.712 242.331 172.991C241.544 173.262 241.155 173.681 241.163 174.248C241.155 174.815 241.544 175.238 242.331 175.518C243.127 175.788 244.337 175.924 245.962 175.924C247.545 175.924 248.738 175.788 249.542 175.518C250.346 175.238 250.752 174.815 250.761 174.248C250.752 173.681 250.346 173.262 249.542 172.991C248.738 172.712 247.545 172.572 245.962 172.572ZM260.917 176.229C260.528 176.229 260.168 176.131 259.838 175.937C259.508 175.742 259.245 175.484 259.051 175.162C258.865 174.832 258.776 174.477 258.784 174.096C258.776 173.715 258.865 173.364 259.051 173.042C259.245 172.72 259.508 172.466 259.838 172.28C260.168 172.086 260.528 171.988 260.917 171.988C261.281 171.988 261.624 172.086 261.945 172.28C262.275 172.466 262.538 172.72 262.732 173.042C262.927 173.364 263.024 173.715 263.024 174.096C263.024 174.477 262.927 174.832 262.732 175.162C262.538 175.484 262.275 175.742 261.945 175.937C261.624 176.131 261.281 176.229 260.917 176.229Z" fill="url(#paint0_linear_2591_11350)"/>
<g clip-path="url(#clip1_2591_11350)">
<path d="M225.26 260.702C225.26 257.004 222.912 253.716 219.416 252.514L213.846 250.602H153.536C151.438 250.602 149.736 252.304 149.736 254.402V273.952H225.262L225.26 260.702Z" fill="#4592FB"/>
<path d="M149.736 273.953V276.019C149.736 278.013 151.352 279.629 153.346 279.629H221.46C223.558 279.629 225.26 277.927 225.26 275.829V273.953H149.736Z" fill="#2D67D5"/>
<path d="M210.701 286.734C216.224 286.734 220.701 282.257 220.701 276.734C220.701 271.212 216.224 266.734 210.701 266.734C205.178 266.734 200.701 271.212 200.701 276.734C200.701 282.257 205.178 286.734 210.701 286.734Z" fill="#313D4C"/>
<path d="M210.701 280.734C212.91 280.734 214.701 278.944 214.701 276.734C214.701 274.525 212.91 272.734 210.701 272.734C208.492 272.734 206.701 274.525 206.701 276.734C206.701 278.944 208.492 280.734 210.701 280.734Z" fill="#6B7683"/>
<path d="M164.299 286.734C169.822 286.734 174.299 282.257 174.299 276.734C174.299 271.212 169.822 266.734 164.299 266.734C158.776 266.734 154.299 271.212 154.299 276.734C154.299 282.257 158.776 286.734 164.299 286.734Z" fill="#313D4C"/>
<path d="M164.299 280.734C166.508 280.734 168.299 278.944 168.299 276.734C168.299 274.525 166.508 272.734 164.299 272.734C162.09 272.734 160.299 274.525 160.299 276.734C160.299 278.944 162.09 280.734 164.299 280.734Z" fill="#6B7683"/>
<path d="M225.26 265.658H223.676C222.364 265.658 221.3 264.594 221.3 263.282C221.3 261.97 222.364 260.906 223.676 260.906H225.26V265.658Z" fill="white"/>
<path d="M149.737 265.656H153.221C154.533 265.656 155.597 264.592 155.597 263.282C155.597 261.97 154.533 260.906 153.223 260.906H149.739V265.656H149.737Z" fill="#EF4452"/>
<path d="M207.103 234.057C205.947 231.177 203.155 229.289 200.051 229.289H165.047C161.197 229.289 157.895 232.031 157.185 235.813L154.409 250.601H213.745L207.103 234.057Z" fill="#313D4C"/>
</g>
<rect x="18.5" y="355.5" width="338" height="107" rx="13.5" fill="white"/>
<rect x="18.5" y="355.5" width="338" height="107" rx="13.5" stroke="#BFDBFE" stroke-width="3"/>
<path d="M147.507 390.717H145.73V381.47H147.507V390.717ZM144.668 390.7H142.925V390.069H140.534V388.808H142.925V381.735H144.668V390.7ZM134.458 387.114C135.875 387.114 137.253 387.087 138.592 387.031C139.931 386.976 141.143 386.865 142.228 386.699L142.344 387.944C141.48 388.132 140.501 388.271 139.405 388.359V390.65H137.629V388.467C137.098 388.495 136.362 388.509 135.421 388.509H134.641L134.458 387.114ZM138.808 392.36H145.664V391.215H147.507V396.295H136.981V391.215H138.808V392.36ZM145.664 394.851V393.771H138.808V394.851H145.664ZM138.442 382.001C139.095 382.001 139.668 382.092 140.161 382.275C140.659 382.452 141.043 382.709 141.314 383.047C141.591 383.379 141.729 383.772 141.729 384.226C141.729 384.674 141.591 385.067 141.314 385.404C141.043 385.742 140.659 386.005 140.161 386.193C139.663 386.375 139.09 386.467 138.442 386.467C137.789 386.467 137.211 386.375 136.708 386.193C136.209 386.005 135.822 385.742 135.545 385.404C135.274 385.067 135.139 384.674 135.139 384.226C135.139 383.772 135.274 383.379 135.545 383.047C135.822 382.709 136.209 382.452 136.708 382.275C137.206 382.092 137.784 382.001 138.442 382.001ZM138.442 383.279C137.933 383.279 137.535 383.362 137.247 383.528C136.959 383.689 136.815 383.921 136.815 384.226C136.815 384.535 136.957 384.771 137.239 384.931C137.527 385.092 137.928 385.172 138.442 385.172C138.946 385.172 139.344 385.092 139.638 384.931C139.931 384.771 140.08 384.535 140.086 384.226C140.08 383.921 139.928 383.689 139.629 383.528C139.336 383.362 138.94 383.279 138.442 383.279ZM156.073 382.316C157.125 382.316 158.076 382.493 158.929 382.848C159.781 383.196 160.451 383.692 160.938 384.333C161.424 384.975 161.668 385.714 161.668 386.55C161.668 387.396 161.424 388.144 160.938 388.791C160.451 389.433 159.781 389.931 158.929 390.285C158.082 390.639 157.13 390.816 156.073 390.816C155.022 390.816 154.073 390.639 153.226 390.285C152.379 389.931 151.713 389.433 151.226 388.791C150.744 388.144 150.506 387.396 150.512 386.55C150.506 385.714 150.744 384.975 151.226 384.333C151.713 383.692 152.379 383.196 153.226 382.848C154.073 382.493 155.022 382.316 156.073 382.316ZM156.073 383.811C155.354 383.805 154.706 383.916 154.131 384.143C153.555 384.369 153.104 384.693 152.778 385.114C152.451 385.529 152.288 386.007 152.288 386.55C152.288 387.103 152.451 387.59 152.778 388.011C153.104 388.426 153.553 388.747 154.123 388.974C154.698 389.195 155.348 389.306 156.073 389.306C156.804 389.306 157.454 389.195 158.024 388.974C158.599 388.747 159.048 388.426 159.369 388.011C159.695 387.59 159.858 387.103 159.858 386.55C159.858 386.007 159.695 385.529 159.369 385.114C159.048 384.693 158.599 384.369 158.024 384.143C157.448 383.916 156.798 383.805 156.073 383.811ZM162.963 394.585H149.25V393.074H162.963V394.585ZM177.655 394.734H163.942V393.207H169.853V390.767H165.569V385.853H174.202V383.993H165.536V382.499H176.028V387.313H167.412V389.256H176.377V390.767H171.679V393.207H177.655V394.734ZM188.347 385.072C188.341 385.996 188.493 386.896 188.803 387.77C189.113 388.644 189.561 389.422 190.148 390.103C190.735 390.783 191.424 391.292 192.215 391.63L191.119 393.107C190.272 392.715 189.534 392.142 188.903 391.389C188.278 390.637 187.788 389.759 187.434 388.758C187.079 389.842 186.579 390.794 185.931 391.613C185.289 392.427 184.523 393.041 183.632 393.456L182.503 391.912C183.316 391.563 184.022 391.038 184.62 390.335C185.223 389.627 185.682 388.816 185.998 387.903C186.313 386.984 186.471 386.041 186.471 385.072V382.682H188.347V385.072ZM195.153 396.494H193.294V381.47H195.153V396.494ZM202.74 384.076C202.74 384.701 202.873 385.307 203.139 385.894C203.41 386.475 203.811 386.995 204.342 387.455C204.879 387.914 205.529 388.271 206.293 388.525L205.363 389.953C204.544 389.682 203.836 389.281 203.238 388.75C202.641 388.213 202.173 387.585 201.835 386.865C201.498 387.651 201.016 388.334 200.391 388.916C199.771 389.491 199.033 389.925 198.175 390.219L197.195 388.791C197.981 388.531 198.651 388.16 199.204 387.679C199.757 387.192 200.175 386.638 200.458 386.019C200.74 385.393 200.881 384.746 200.881 384.076V383.894H197.71V382.416H205.861V383.894H202.74V384.076ZM209.198 385.222H211.29V386.766H209.198V390.518H207.355V381.47H209.198V385.222ZM209.198 396.478H207.355V392.692H199.204V391.215H209.198V396.478ZM223.808 387.446H226.115V388.974H223.808V396.478H221.981V381.47H223.808V387.446ZM220.819 385.255H211.971V383.777H215.523V381.686H217.366V383.777H220.819V385.255ZM216.453 386.234C217.167 386.234 217.809 386.387 218.379 386.691C218.954 386.99 219.405 387.408 219.732 387.944C220.058 388.481 220.222 389.09 220.222 389.771C220.222 390.451 220.058 391.06 219.732 391.597C219.405 392.128 218.954 392.543 218.379 392.842C217.809 393.141 217.167 393.29 216.453 393.29C215.728 393.29 215.078 393.141 214.502 392.842C213.927 392.543 213.476 392.128 213.149 391.597C212.823 391.06 212.662 390.451 212.668 389.771C212.662 389.09 212.823 388.481 213.149 387.944C213.476 387.408 213.927 386.99 214.502 386.691C215.078 386.387 215.728 386.234 216.453 386.234ZM216.453 387.745C216.06 387.745 215.709 387.828 215.399 387.994C215.095 388.16 214.857 388.398 214.685 388.708C214.514 389.012 214.428 389.367 214.428 389.771C214.428 390.174 214.514 390.529 214.685 390.833C214.857 391.132 215.095 391.364 215.399 391.53C215.709 391.691 216.06 391.768 216.453 391.763C216.835 391.768 217.175 391.691 217.474 391.53C217.778 391.364 218.016 391.132 218.188 390.833C218.365 390.529 218.456 390.174 218.462 389.771C218.456 389.367 218.365 389.012 218.188 388.708C218.016 388.404 217.778 388.168 217.474 388.002C217.175 387.831 216.835 387.745 216.453 387.745ZM239.28 396.478H237.421V381.47H239.28V396.478ZM234.798 383.063C234.798 385.449 234.258 387.543 233.179 389.347C232.1 391.146 230.31 392.637 227.809 393.821L226.846 392.344C228.777 391.425 230.23 390.327 231.204 389.048C232.183 387.764 232.756 386.257 232.922 384.524H227.609V383.063H234.798Z" fill="#364153"/>
<rect x="76.5" y="413" width="145" height="28" rx="8" fill="#FEF2F2"/>
<g clip-path="url(#clip2_2591_11350)">
<path d="M103.874 426.998C103.874 426.101 104.602 425.373 105.499 425.373V421.271C105.499 420.819 105.133 420.453 104.681 420.453H88.317C87.865 420.453 87.499 420.82 87.499 421.271V425.373C88.3965 425.373 89.124 426.101 89.124 426.998C89.124 427.896 88.3965 428.623 87.499 428.623V432.725C87.499 433.177 87.8655 433.543 88.317 433.543H104.681C105.133 433.543 105.499 433.177 105.499 432.725V428.623C104.601 428.623 103.874 427.896 103.874 426.998Z" fill="#F56570"/>
<path d="M99.254 425.973L97.3515 425.696L96.501 423.973L95.6505 425.696L93.748 425.973L95.1245 427.315L94.7995 429.209L96.501 428.315L98.2025 429.209L97.8775 427.315L99.254 425.973Z" fill="#E32939"/>
</g>
<path d="M115.541 423.551C115.541 424.029 115.66 424.492 115.896 424.938C116.138 425.381 116.482 425.775 116.929 426.121C117.38 426.463 117.911 426.723 118.521 426.9L117.906 427.912C117.214 427.702 116.612 427.388 116.102 426.969C115.591 426.549 115.197 426.055 114.919 425.485C114.655 426.128 114.26 426.688 113.736 427.167C113.217 427.641 112.602 427.999 111.891 428.24L111.248 427.201C111.863 427.01 112.396 426.729 112.848 426.36C113.303 425.987 113.652 425.558 113.894 425.075C114.135 424.588 114.256 424.079 114.256 423.551V423.346H111.59V422.307H114.256V420.871H115.555V422.307H118.207V423.346H115.541V423.551ZM121.461 429.361H120.162V425.396H117.838V424.316H120.162V420.912H121.461V429.361ZM118.111 428.801C118.111 429.32 118.287 429.81 118.638 430.271C118.993 430.726 119.481 431.114 120.101 431.433C120.725 431.747 121.424 431.964 122.199 432.082L121.68 433.107C120.718 432.948 119.861 432.64 119.109 432.185C118.362 431.729 117.806 431.168 117.441 430.503C117.072 431.164 116.509 431.722 115.753 432.178C115.001 432.638 114.142 432.948 113.176 433.107L112.711 432.082C113.463 431.959 114.149 431.736 114.769 431.412C115.388 431.084 115.878 430.692 116.238 430.236C116.598 429.781 116.781 429.302 116.785 428.801V428.555H118.111V428.801ZM137.936 428.869H132.959V433.148H131.688V428.869H126.766V427.816H137.936V428.869ZM136.883 422.676H133.096C133.1 423.173 133.292 423.646 133.67 424.098C134.053 424.544 134.565 424.925 135.208 425.239C135.851 425.549 136.555 425.757 137.32 425.861L136.842 426.887C136.172 426.782 135.541 426.606 134.948 426.36C134.356 426.11 133.836 425.8 133.39 425.431C132.943 425.057 132.597 424.64 132.351 424.18C131.981 424.872 131.396 425.458 130.594 425.937C129.796 426.41 128.894 426.727 127.887 426.887L127.395 425.861C128.151 425.757 128.848 425.549 129.486 425.239C130.129 424.925 130.642 424.544 131.024 424.098C131.407 423.646 131.605 423.173 131.619 422.676H127.805V421.637H136.883V422.676ZM150.062 428.158H145.195V430.537H143.91V428.158H138.852V427.105H150.062V428.158ZM148.613 425.834H140.287V421.486H148.613V425.834ZM141.559 424.809H147.328V422.512H141.559V424.809ZM148.818 432.902H140.246V429.375H141.545V431.85H148.818V432.902ZM158.17 432.137C157.555 432.137 156.996 432.021 156.495 431.788C155.994 431.551 155.595 431.228 155.299 430.817C155.003 430.403 154.843 429.936 154.82 429.416H156.283C156.311 429.694 156.411 429.945 156.584 430.168C156.757 430.391 156.983 430.567 157.261 430.694C157.539 430.817 157.842 430.879 158.17 430.879C158.566 430.879 158.92 430.79 159.229 430.612C159.544 430.435 159.79 430.191 159.968 429.881C160.146 429.566 160.234 429.215 160.234 428.828C160.234 428.432 160.143 428.076 159.961 427.762C159.779 427.443 159.526 427.194 159.202 427.017C158.879 426.834 158.512 426.741 158.102 426.736C157.268 426.736 156.689 427.028 156.365 427.611H154.943L155.586 422.102H161.191V423.387H156.83L156.502 426.162H156.598C156.807 425.962 157.076 425.8 157.404 425.677C157.737 425.554 158.088 425.492 158.457 425.492C159.068 425.492 159.619 425.633 160.111 425.916C160.608 426.199 160.995 426.59 161.273 427.092C161.556 427.593 161.697 428.158 161.697 428.787C161.697 429.43 161.547 430.006 161.246 430.517C160.945 431.027 160.526 431.426 159.988 431.713C159.455 431.995 158.849 432.137 158.17 432.137ZM166.742 432.137C165.981 432.137 165.327 431.938 164.78 431.542C164.238 431.146 163.823 430.567 163.536 429.806C163.249 429.04 163.105 428.122 163.105 427.051C163.105 425.989 163.249 425.077 163.536 424.316C163.828 423.551 164.247 422.967 164.794 422.566C165.341 422.165 165.99 421.965 166.742 421.965C167.494 421.965 168.144 422.165 168.69 422.566C169.237 422.967 169.654 423.551 169.941 424.316C170.233 425.077 170.379 425.989 170.379 427.051C170.379 428.122 170.235 429.038 169.948 429.799C169.661 430.56 169.244 431.141 168.697 431.542C168.15 431.938 167.499 432.137 166.742 432.137ZM166.742 430.838C167.189 430.838 167.572 430.694 167.891 430.407C168.21 430.116 168.453 429.687 168.622 429.122C168.791 428.557 168.875 427.867 168.875 427.051C168.875 426.24 168.788 425.549 168.615 424.979C168.447 424.405 168.203 423.972 167.884 423.681C167.565 423.384 167.184 423.236 166.742 423.236C166.3 423.236 165.92 423.384 165.601 423.681C165.282 423.972 165.035 424.405 164.862 424.979C164.694 425.549 164.609 426.24 164.609 427.051C164.609 427.867 164.694 428.557 164.862 429.122C165.031 429.687 165.275 430.116 165.594 430.407C165.913 430.694 166.296 430.838 166.742 430.838ZM174.207 426.805C173.765 426.809 173.387 426.709 173.072 426.504C172.758 426.299 172.521 426.012 172.361 425.643C172.202 425.269 172.124 424.836 172.129 424.344C172.124 423.861 172.204 423.435 172.368 423.065C172.532 422.696 172.771 422.409 173.086 422.204C173.4 421.999 173.774 421.896 174.207 421.896C174.649 421.896 175.025 421.999 175.335 422.204C175.649 422.409 175.886 422.696 176.046 423.065C176.205 423.43 176.285 423.856 176.285 424.344C176.285 424.836 176.203 425.269 176.039 425.643C175.875 426.016 175.636 426.306 175.321 426.511C175.011 426.711 174.64 426.809 174.207 426.805ZM174.207 425.848C174.521 425.848 174.756 425.713 174.911 425.444C175.071 425.175 175.15 424.809 175.15 424.344C175.15 423.879 175.073 423.514 174.918 423.25C174.763 422.986 174.526 422.854 174.207 422.854C173.897 422.858 173.66 422.995 173.496 423.264C173.332 423.528 173.25 423.888 173.25 424.344C173.25 424.809 173.33 425.175 173.489 425.444C173.653 425.713 173.893 425.848 174.207 425.848ZM180.455 432.205C180.013 432.205 179.635 432.103 179.32 431.897C179.006 431.692 178.769 431.405 178.609 431.036C178.45 430.667 178.372 430.236 178.377 429.744C178.372 429.257 178.452 428.828 178.616 428.459C178.78 428.085 179.02 427.796 179.334 427.591C179.653 427.386 180.027 427.283 180.455 427.283C180.897 427.283 181.273 427.386 181.583 427.591C181.897 427.796 182.134 428.083 182.294 428.452C182.453 428.821 182.533 429.252 182.533 429.744C182.533 430.232 182.451 430.662 182.287 431.036C182.123 431.405 181.884 431.692 181.569 431.897C181.259 432.103 180.888 432.205 180.455 432.205ZM180.455 431.234C180.765 431.234 181 431.102 181.159 430.838C181.319 430.569 181.398 430.204 181.398 429.744C181.398 429.275 181.321 428.908 181.166 428.644C181.011 428.375 180.774 428.24 180.455 428.24C180.145 428.245 179.908 428.384 179.744 428.657C179.58 428.926 179.498 429.288 179.498 429.744C179.498 430.2 179.58 430.562 179.744 430.831C179.913 431.1 180.15 431.234 180.455 431.234ZM180.045 422.102H181.289L174.494 432H173.25L180.045 422.102ZM197.08 423.742H198.871V424.809H197.08V427.611H195.781V420.871H197.08V423.742ZM197.08 431.029H190.463V432.055H197.504V433.039H189.191V430.113H195.795V429.156H189.164V428.186H197.08V431.029ZM194.77 422.977H187.469V421.951H190.477V420.803H191.775V421.951H194.77V422.977ZM191.119 423.441C191.712 423.441 192.231 423.523 192.678 423.688C193.129 423.847 193.475 424.079 193.717 424.385C193.963 424.686 194.086 425.041 194.086 425.451C194.086 425.861 193.963 426.217 193.717 426.518C193.475 426.818 193.131 427.049 192.685 427.208C192.238 427.368 191.716 427.447 191.119 427.447C190.518 427.447 189.991 427.368 189.54 427.208C189.093 427.049 188.747 426.818 188.501 426.518C188.259 426.217 188.139 425.861 188.139 425.451C188.139 425.041 188.262 424.686 188.508 424.385C188.754 424.079 189.1 423.847 189.547 423.688C189.998 423.523 190.522 423.441 191.119 423.441ZM191.119 424.371C190.773 424.371 190.467 424.417 190.203 424.508C189.943 424.594 189.743 424.72 189.602 424.884C189.46 425.043 189.392 425.232 189.396 425.451C189.392 425.775 189.545 426.032 189.854 426.224C190.169 426.41 190.59 426.504 191.119 426.504C191.648 426.504 192.069 426.41 192.384 426.224C192.703 426.037 192.865 425.779 192.869 425.451C192.865 425.232 192.789 425.043 192.644 424.884C192.498 424.72 192.293 424.594 192.028 424.508C191.769 424.417 191.465 424.371 191.119 424.371ZM209.713 429.826H208.414V420.926H209.713V429.826ZM210.082 432.902H201.701V428.924H203.014V431.85H210.082V432.902ZM203.068 421.746C203.679 421.746 204.23 421.876 204.723 422.136C205.219 422.396 205.609 422.756 205.892 423.216C206.179 423.676 206.322 424.198 206.322 424.781C206.322 425.374 206.179 425.902 205.892 426.367C205.609 426.827 205.219 427.188 204.723 427.447C204.23 427.702 203.679 427.83 203.068 427.83C202.458 427.83 201.904 427.702 201.407 427.447C200.91 427.188 200.519 426.825 200.231 426.36C199.944 425.896 199.801 425.369 199.801 424.781C199.801 424.198 199.944 423.676 200.231 423.216C200.519 422.756 200.91 422.396 201.407 422.136C201.904 421.876 202.458 421.746 203.068 421.746ZM203.068 422.881C202.69 422.881 202.348 422.963 202.043 423.127C201.742 423.286 201.505 423.51 201.332 423.797C201.159 424.084 201.072 424.412 201.072 424.781C201.072 425.16 201.157 425.494 201.325 425.786C201.498 426.073 201.735 426.297 202.036 426.456C202.341 426.616 202.686 426.695 203.068 426.695C203.442 426.695 203.779 426.616 204.08 426.456C204.381 426.297 204.618 426.071 204.791 425.779C204.964 425.488 205.051 425.155 205.051 424.781C205.051 424.417 204.964 424.091 204.791 423.804C204.618 423.512 204.379 423.286 204.073 423.127C203.772 422.963 203.438 422.881 203.068 422.881Z" fill="#EF4444"/>
<rect x="229.5" y="413" width="69" height="28" rx="8" fill="#EFF6FF"/>
<g clip-path="url(#clip3_2591_11350)">
<path d="M248.609 434.306C249.15 434.663 249.849 434.663 250.39 434.306C252.107 433.171 255.85 430.46 257.462 427.425C259.587 423.422 257.091 419.43 253.793 419.43C251.912 419.43 250.781 420.412 250.155 421.257C249.826 421.702 249.174 421.702 248.844 421.257C248.219 420.412 247.087 419.43 245.207 419.43C241.908 419.43 239.412 423.422 241.538 427.425C243.149 430.459 246.892 433.171 248.609 434.306Z" fill="#1E6EF4"/>
</g>
<path d="M274.51 429.826H273.211V420.926H274.51V429.826ZM274.879 432.902H266.498V428.924H267.811V431.85H274.879V432.902ZM267.865 421.746C268.476 421.746 269.027 421.876 269.52 422.136C270.016 422.396 270.406 422.756 270.688 423.216C270.976 423.676 271.119 424.198 271.119 424.781C271.119 425.374 270.976 425.902 270.688 426.367C270.406 426.827 270.016 427.188 269.52 427.447C269.027 427.702 268.476 427.83 267.865 427.83C267.255 427.83 266.701 427.702 266.204 427.447C265.707 427.188 265.315 426.825 265.028 426.36C264.741 425.896 264.598 425.369 264.598 424.781C264.598 424.198 264.741 423.676 265.028 423.216C265.315 422.756 265.707 422.396 266.204 422.136C266.701 421.876 267.255 421.746 267.865 421.746ZM267.865 422.881C267.487 422.881 267.145 422.963 266.84 423.127C266.539 423.286 266.302 423.51 266.129 423.797C265.956 424.084 265.869 424.412 265.869 424.781C265.869 425.16 265.953 425.494 266.122 425.786C266.295 426.073 266.532 426.297 266.833 426.456C267.138 426.616 267.482 426.695 267.865 426.695C268.239 426.695 268.576 426.616 268.877 426.456C269.178 426.297 269.415 426.071 269.588 425.779C269.761 425.488 269.848 425.155 269.848 424.781C269.848 424.417 269.761 424.091 269.588 423.804C269.415 423.512 269.175 423.286 268.87 423.127C268.569 422.963 268.234 422.881 267.865 422.881ZM286.637 433.162H285.324V420.912H286.637V433.162ZM282.986 422.225C282.986 424.12 282.533 425.807 281.626 427.283C280.724 428.755 279.268 429.972 277.258 430.934L276.574 429.881C278.183 429.115 279.402 428.183 280.231 427.085C281.065 425.987 281.546 424.713 281.674 423.264H277.162V422.225H282.986Z" fill="#3B82F6"/>
<rect x="20" y="481" width="335" height="48" rx="12" fill="white"/>
<path d="M169.164 508.443H167.321V502.948H164.665V501.454H167.321V497.486H169.164V508.443ZM169.545 512.179H159.319V507.48H161.162V510.685H169.545V512.179ZM162.108 500.475C162.108 501.089 162.243 501.689 162.515 502.276C162.786 502.857 163.187 503.38 163.718 503.845C164.25 504.304 164.891 504.658 165.644 504.907L164.714 506.385C163.895 506.103 163.187 505.693 162.589 505.156C161.997 504.614 161.532 503.98 161.195 503.255C160.857 504.063 160.376 504.766 159.75 505.364C159.125 505.956 158.378 506.401 157.509 506.7L156.563 505.206C157.338 504.951 157.999 504.581 158.547 504.094C159.1 503.601 159.518 503.042 159.8 502.417C160.088 501.786 160.232 501.133 160.232 500.458V500.06H157.111V498.565H165.212V500.06H162.108V500.475ZM183.159 503.662H185.267V505.206H183.159V512.478H181.299V497.47H183.159V503.662ZM171.106 508.311C172.744 508.311 174.022 508.299 174.941 508.277V506.875C174.399 506.78 173.923 506.609 173.513 506.36C173.109 506.111 172.797 505.798 172.575 505.422C172.354 505.04 172.246 504.619 172.251 504.16C172.246 503.601 172.395 503.109 172.7 502.683C173.004 502.257 173.433 501.927 173.986 501.695C174.54 501.457 175.173 501.338 175.887 501.338C176.59 501.338 177.215 501.457 177.763 501.695C178.317 501.927 178.748 502.257 179.058 502.683C179.374 503.109 179.534 503.601 179.54 504.16C179.534 504.625 179.418 505.046 179.191 505.422C178.964 505.798 178.643 506.114 178.228 506.368C177.819 506.617 177.343 506.786 176.8 506.875V508.211C178.234 508.133 179.468 508.023 180.502 507.879L180.619 509.224C179.191 509.478 177.73 509.644 176.236 509.722C174.742 509.799 173.12 509.838 171.372 509.838L171.106 508.311ZM180.336 500.657H171.388V499.196H174.941V497.536H176.8V499.196H180.336V500.657ZM175.887 502.749C175.306 502.76 174.844 502.89 174.501 503.139C174.163 503.383 173.995 503.723 173.995 504.16C173.995 504.592 174.166 504.929 174.509 505.173C174.852 505.416 175.312 505.533 175.887 505.521C176.457 505.533 176.911 505.416 177.249 505.173C177.592 504.924 177.763 504.586 177.763 504.16C177.763 503.729 177.592 503.388 177.249 503.139C176.911 502.89 176.457 502.76 175.887 502.749ZM203.695 507.331H197.735V512.461H195.909V507.331H190.015V505.837H203.695V507.331ZM202.433 499.777H197.926C197.965 500.325 198.2 500.854 198.631 501.363C199.063 501.866 199.655 502.298 200.408 502.658C201.16 503.017 202.018 503.258 202.981 503.38L202.317 504.824C201.044 504.647 199.929 504.282 198.972 503.729C198.02 503.175 197.314 502.489 196.855 501.67C196.396 502.483 195.69 503.17 194.738 503.729C193.786 504.282 192.682 504.647 191.426 504.824L190.729 503.38C191.686 503.258 192.539 503.017 193.286 502.658C194.038 502.298 194.63 501.866 195.062 501.363C195.499 500.854 195.74 500.325 195.784 499.777H191.277V498.316H202.433V499.777ZM218.404 506.451H212.61V509.207H210.784V506.451H204.691V504.974H218.404V506.451ZM216.644 503.579H206.434V498.15H216.644V503.579ZM208.227 502.135H214.818V499.595H208.227V502.135ZM216.893 512.179H206.351V507.829H208.194V510.685H216.893V512.179Z" fill="#364153"/>
<defs>
<linearGradient id="paint0_linear_2591_11350" x1="110" y1="167" x2="265" y2="167" gradientUnits="userSpaceOnUse">
<stop stop-color="#172554"/>
<stop offset="1" stop-color="#2563EB"/>
</linearGradient>
<clipPath id="clip0_2591_11350">
<rect width="77" height="21" fill="white" transform="translate(149 60)"/>
</clipPath>
<clipPath id="clip1_2591_11350">
<rect width="80" height="80" fill="white" transform="translate(147.5 217)"/>
</clipPath>
<clipPath id="clip2_2591_11350">
<rect width="20" height="20" fill="white" transform="translate(86.5 417)"/>
</clipPath>
<clipPath id="clip3_2591_11350">
<rect width="20" height="20" fill="white" transform="translate(239.5 417)"/>
</clipPath>
</defs>
</svg>
